<svg width="20" height="20" viewBox="0 0 20 20" fill="none" xmlns="http://www.w3.org/2000/svg">
<path d="M11.8744 20H8.12436C7.87436 20 7.65769 19.9167 7.47436 19.75C7.29103 19.5833 7.18269 19.375 7.14936 19.125L6.84936 16.8C6.63269 16.7167 6.42853 16.6167 6.23686 16.5C6.04519 16.3833 5.85769 16.2583 5.67436 16.125L3.49936 17.025C3.26603 17.1083 3.03269 17.1167 2.79936 17.05C2.56603 16.9833 2.38269 16.8417 2.24936 16.625L0.399361 13.4C0.266027 13.1833 0.224361 12.95 0.274361 12.7C0.324361 12.45 0.449361 12.25 0.649361 12.1L2.52436 10.675C2.50769 10.5583 2.49936 10.4458 2.49936 10.3375V9.6625C2.49936 9.55417 2.50769 9.44167 2.52436 9.325L0.649361 7.9C0.449361 7.75 0.324361 7.55 0.274361 7.3C0.224361 7.05 0.266027 6.81667 0.399361 6.6L2.24936 3.375C2.36603 3.14167 2.54519 2.99583 2.78686 2.9375C3.02853 2.87917 3.26603 2.89167 3.49936 2.975L5.67436 3.875C5.85769 3.74167 6.04936 3.61667 6.24936 3.5C6.44936 3.38333 6.64936 3.28333 6.84936 3.2L7.14936 0.875C7.18269 0.625 7.29103 0.416667 7.47436 0.25C7.65769 0.0833333 7.87436 0 8.12436 0H11.8744C12.1244 0 12.341 0.0833333 12.5244 0.25C12.7077 0.416667 12.816 0.625 12.8494 0.875L13.1494 3.2C13.366 3.28333 13.5702 3.38333 13.7619 3.5C13.9535 3.61667 14.141 3.74167 14.3244 3.875L16.4994 2.975C16.7327 2.89167 16.966 2.88333 17.1994 2.95C17.4327 3.01667 17.616 3.15833 17.7494 3.375L19.5994 6.6C19.7327 6.81667 19.7744 7.05 19.7244 7.3C19.6744 7.55 19.5494 7.75 19.3494 7.9L17.4744 9.325C17.491 9.44167 17.4994 9.55417 17.4994 9.6625V10.3375C17.4994 10.4458 17.4827 10.5583 17.4494 10.675L19.3244 12.1C19.5244 12.25 19.6494 12.45 19.6994 12.7C19.7494 12.95 19.7077 13.1833 19.5744 13.4L17.7244 16.6C17.591 16.8167 17.4035 16.9625 17.1619 17.0375C16.9202 17.1125 16.6827 17.1083 16.4494 17.025L14.3244 16.125C14.141 16.2583 13.9494 16.3833 13.7494 16.5C13.5494 16.6167 13.3494 16.7167 13.1494 16.8L12.8494 19.125C12.816 19.375 12.7077 19.5833 12.5244 19.75C12.341 19.9167 12.1244 20 11.8744 20ZM10.0494 13.5C11.016 13.5 11.841 13.1583 12.5244 12.475C13.2077 11.7917 13.5494 10.9667 13.5494 10C13.5494 9.03333 13.2077 8.20833 12.5244 7.525C11.841 6.84167 11.016 6.5 10.0494 6.5C9.06603 6.5 8.23686 6.84167 7.56186 7.525C6.88686 8.20833 6.54936 9.03333 6.54936 10C6.54936 10.9667 6.88686 11.7917 7.56186 12.475C8.23686 13.1583 9.06603 13.5 10.0494 13.5ZM10.0494 11.5C9.63269 11.5 9.27853 11.3542 8.98686 11.0625C8.69519 10.7708 8.54936 10.4167 8.54936 10C8.54936 9.58333 8.69519 9.22917 8.98686 8.9375C9.27853 8.64583 9.63269 8.5 10.0494 8.5C10.466 8.5 10.8202 8.64583 11.1119 8.9375C11.4035 9.22917 11.5494 9.58333 11.5494 10C11.5494 10.4167 11.4035 10.7708 11.1119 11.0625C10.8202 11.3542 10.466 11.5 10.0494 11.5ZM8.99936 18H10.9744L11.3244 15.35C11.841 15.2167 12.3202 15.0208 12.7619 14.7625C13.2035 14.5042 13.6077 14.1917 13.9744 13.825L16.4494 14.85L17.4244 13.15L15.2744 11.525C15.3577 11.2917 15.416 11.0458 15.4494 10.7875C15.4827 10.5292 15.4994 10.2667 15.4994 10C15.4994 9.73333 15.4827 9.47083 15.4494 9.2125C15.416 8.95417 15.3577 8.70833 15.2744 8.475L17.4244 6.85L16.4494 5.15L13.9744 6.2C13.6077 5.81667 13.2035 5.49583 12.7619 5.2375C12.3202 4.97917 11.841 4.78333 11.3244 4.65L10.9994 2H9.02436L8.67436 4.65C8.15769 4.78333 7.67853 4.97917 7.23686 5.2375C6.79519 5.49583 6.39103 5.80833 6.02436 6.175L3.54936 5.15L2.57436 6.85L4.72436 8.45C4.64103 8.7 4.58269 8.95 4.54936 9.2C4.51603 9.45 4.49936 9.71667 4.49936 10C4.49936 10.2667 4.51603 10.525 4.54936 10.775C4.58269 11.025 4.64103 11.275 4.72436 11.525L2.57436 13.15L3.54936 14.85L6.02436 13.8C6.39103 14.1833 6.79519 14.5042 7.23686 14.7625C7.67853 15.0208 8.15769 15.2167 8.67436 15.35L8.99936 18Z" fill="white"/>
</svg>
