<svg width="17" height="17" viewBox="0 0 17 17" fill="none" xmlns="http://www.w3.org/2000/svg">
<path fill-rule="evenodd" clip-rule="evenodd" d="M13.0505 11.8632L15.9137 14.7179C16.0731 14.876 16.1628 15.0913 16.1628 15.3158C16.1628 15.5403 16.0731 15.7556 15.9137 15.9137C15.7556 16.0731 15.5403 16.1628 15.3158 16.1628C15.0913 16.1628 14.876 16.0731 14.7179 15.9137L11.8632 13.0505C10.6863 13.9743 9.23297 14.4755 7.73684 14.4737C4.01619 14.4737 1 11.4575 1 7.73684C1 4.01619 4.01619 1 7.73684 1C11.4575 1 14.4737 4.01619 14.4737 7.73684C14.4755 9.23297 13.9743 10.6863 13.0505 11.8632ZM7.73684 2.68421C4.94635 2.68421 2.68421 4.94635 2.68421 7.73684C2.68421 10.5273 4.94635 12.7895 7.73684 12.7895C10.5273 12.7895 12.7895 10.5273 12.7895 7.73684C12.7895 4.94635 10.5273 2.68421 7.73684 2.68421Z" fill="black"/>
<path d="M15.9137 14.7179L15.5607 15.072L15.5616 15.0729L15.9137 14.7179ZM13.0505 11.8632L12.6572 11.5544L12.3831 11.9037L12.6975 12.2172L13.0505 11.8632ZM15.9137 15.9137L15.5616 15.5587L15.5587 15.5616L15.9137 15.9137ZM14.7179 15.9137L15.0729 15.5616L15.072 15.5607L14.7179 15.9137ZM11.8632 13.0505L12.2172 12.6975L11.9037 12.3831L11.5544 12.6572L11.8632 13.0505ZM7.73684 14.4737L7.73746 13.9737H7.73684V14.4737ZM14.4737 7.73684L13.9737 7.73684L13.9737 7.73746L14.4737 7.73684ZM16.2667 14.3638L13.4036 11.5091L12.6975 12.2172L15.5607 15.072L16.2667 14.3638ZM16.6628 15.3158C16.6628 14.9579 16.5199 14.6149 16.2658 14.3629L15.5616 15.0729C15.6263 15.1371 15.6628 15.2246 15.6628 15.3158H16.6628ZM16.2658 16.2687C16.5199 16.0167 16.6628 15.6736 16.6628 15.3158H15.6628C15.6628 15.407 15.6263 15.4944 15.5616 15.5587L16.2658 16.2687ZM15.3158 16.6628C15.6736 16.6628 16.0167 16.5199 16.2687 16.2658L15.5587 15.5616C15.4944 15.6263 15.407 15.6628 15.3158 15.6628V16.6628ZM14.3629 16.2658C14.6149 16.5199 14.9579 16.6628 15.3158 16.6628V15.6628C15.2246 15.6628 15.1371 15.6263 15.0729 15.5616L14.3629 16.2658ZM11.5091 13.4036L14.3638 16.2667L15.072 15.5607L12.2172 12.6975L11.5091 13.4036ZM7.73622 14.9737C9.34451 14.9757 10.9068 14.4369 12.1719 13.4438L11.5544 12.6572C10.4658 13.5117 9.12143 13.9754 7.73746 13.9737L7.73622 14.9737ZM0.5 7.73684C0.5 11.7336 3.74004 14.9737 7.73684 14.9737V13.9737C4.29233 13.9737 1.5 11.1814 1.5 7.73684H0.5ZM7.73684 0.5C3.74004 0.5 0.5 3.74004 0.5 7.73684H1.5C1.5 4.29233 4.29233 1.5 7.73684 1.5V0.5ZM14.9737 7.73684C14.9737 3.74004 11.7336 0.5 7.73684 0.5V1.5C11.1814 1.5 13.9737 4.29233 13.9737 7.73684H14.9737ZM13.4438 12.1719C14.4369 10.9068 14.9757 9.34451 14.9737 7.73622L13.9737 7.73746C13.9754 9.12143 13.5117 10.4658 12.6572 11.5544L13.4438 12.1719ZM3.18421 7.73684C3.18421 5.22249 5.22249 3.18421 7.73684 3.18421V2.18421C4.67021 2.18421 2.18421 4.67021 2.18421 7.73684H3.18421ZM7.73684 12.2895C5.22249 12.2895 3.18421 10.2512 3.18421 7.73684H2.18421C2.18421 10.8035 4.67021 13.2895 7.73684 13.2895V12.2895ZM12.2895 7.73684C12.2895 10.2512 10.2512 12.2895 7.73684 12.2895V13.2895C10.8035 13.2895 13.2895 10.8035 13.2895 7.73684H12.2895ZM7.73684 3.18421C10.2512 3.18421 12.2895 5.22249 12.2895 7.73684H13.2895C13.2895 4.67021 10.8035 2.18421 7.73684 2.18421V3.18421Z" fill="#D9D9D9"/>
</svg>
