<svg width="24" height="24" viewBox="0 0 24 24" fill="none" xmlns="http://www.w3.org/2000/svg">
<rect x="24" y="24" width="24" height="24" rx="3" transform="rotate(-180 24 24)" fill="#F4F4F4"/>
<path d="M14.0433 9.30288C14.0433 8.87019 13.9291 8.54567 13.7067 8.31731C13.4964 8.07692 13.25 7.90865 12.9615 7.8125C12.6851 7.70433 12.4387 7.63822 12.2163 7.62019C12.006 7.60817 11.9038 7.59615 11.9038 7.59615H9.74038V10.8894H11.9038C11.9038 10.8894 12.006 10.8834 12.2163 10.8654C12.4387 10.8534 12.6851 10.7933 12.9615 10.6971C13.25 10.601 13.4964 10.4507 13.7067 10.2404C13.9291 10.018 14.0433 9.70553 14.0433 9.30288ZM16.8077 9.13462C16.8077 9.98798 16.6034 10.6611 16.2067 11.1538C15.8221 11.6346 15.3474 11.9952 14.7885 12.2356C15.3654 12.4279 15.8041 12.6923 16.1106 13.0288C16.4111 13.3534 16.6274 13.6899 16.7596 14.0385C16.8858 14.375 16.9579 14.6635 16.976 14.9038C16.988 15.1322 17 15.2404 17 15.2404C17 16.0457 16.8558 16.7067 16.5673 17.2356C16.2909 17.7524 15.9303 18.1611 15.4856 18.4615C15.0529 18.75 14.5962 18.9663 14.1154 19.1106C13.6466 19.2548 13.2079 19.351 12.7933 19.399C12.3906 19.4351 12.0962 19.4471 11.9038 19.4471H9.76442V16.8029H11.9038C12.2043 16.8029 12.5349 16.7728 12.8894 16.7067C13.256 16.6286 13.5685 16.4663 13.8269 16.226C14.0974 15.9856 14.2356 15.637 14.2356 15.1683C14.2356 14.8317 14.1514 14.5613 13.9952 14.351C13.851 14.1466 13.6587 13.9844 13.4183 13.8702C13.1899 13.762 12.9615 13.6899 12.7212 13.6538C12.4928 13.6238 12.3005 13.6058 12.1442 13.6058C11.982 13.5937 11.9038 13.5817 11.9038 13.5817H7V5.16827C7 5.0601 7.0601 5 7.19231 5H11.9038C11.9038 5 12.024 5.01202 12.2644 5.02404C12.5048 5.04207 12.8053 5.08413 13.1779 5.14423C13.5445 5.21034 13.9351 5.32452 14.3558 5.48077C14.7704 5.64303 15.1611 5.8774 15.5337 6.17788C15.9183 6.48438 16.2188 6.875 16.4471 7.35577C16.6875 7.83654 16.8077 8.43149 16.8077 9.13462Z" fill="#244281"/>
</svg>
