<svg width="60" height="60" viewBox="0 0 60 60" fill="none" xmlns="http://www.w3.org/2000/svg">
<rect width="59.9419" height="59.4195" rx="10" fill="black" fill-opacity="0.19"/>
<path d="M29.1481 30.929L35.2266 24.9035C35.5464 24.5846 35.7259 24.1532 35.7259 23.7035C35.7259 23.2538 35.5464 22.8224 35.2266 22.5035C35.067 22.3439 34.8771 22.2173 34.6678 22.1309C34.4586 22.0445 34.2342 22 34.0075 22C33.7808 22 33.5564 22.0445 33.3471 22.1309C33.1379 22.2173 32.948 22.3439 32.7884 22.5035L25.5079 29.7205C25.347 29.8787 25.2192 30.067 25.1321 30.2744C25.0449 30.4818 25 30.7043 25 30.929C25 31.1537 25.0449 31.3762 25.1321 31.5836C25.2192 31.791 25.347 31.9793 25.5079 32.1375L32.7884 39.4396C32.9488 39.5974 33.1391 39.7222 33.3483 39.8069C33.5575 39.8916 33.7815 39.9345 34.0075 39.9332C34.2335 39.9345 34.4575 39.8916 34.6667 39.8069C34.8759 39.7222 35.0662 39.5974 35.2266 39.4396C35.5464 39.1207 35.7259 38.6893 35.7259 38.2396C35.7259 37.7899 35.5464 37.3585 35.2266 37.0396L29.1481 30.929Z" fill="white" fill-opacity="0.59"/>
</svg>
