<svg width="29" height="29" viewBox="0 0 29 29" fill="none" xmlns="http://www.w3.org/2000/svg">
<path d="M14.2574 0.0820312C11.4375 0.0820312 8.68101 0.906469 6.3364 2.45109C3.99179 3.99571 2.16439 6.19114 1.08528 8.75975C0.00617749 11.3284 -0.276166 14.1548 0.273958 16.8816C0.824081 19.6084 2.18196 22.1132 4.17589 24.0791C6.16982 26.045 8.71024 27.3839 11.4759 27.9263C14.2416 28.4687 17.1082 28.1903 19.7134 27.1263C22.3186 26.0624 24.5453 24.2606 26.1119 21.9489C27.6786 19.6372 28.5147 16.9194 28.5147 14.1392C28.5147 12.2932 28.146 10.4652 27.4295 8.75975C26.713 7.05426 25.6628 5.50461 24.3388 4.19928C23.0149 2.89395 21.4432 1.85851 19.7134 1.15207C17.9836 0.445631 16.1297 0.0820313 14.2574 0.0820312ZM14.2574 25.3849C12.0015 25.3849 9.79628 24.7254 7.9206 23.4897C6.04491 22.254 4.58299 20.4976 3.7197 18.4427C2.85642 16.3879 2.63054 14.1267 3.07064 11.9453C3.51074 9.7638 4.59704 7.76 6.19219 6.18726C7.78733 4.61452 9.81966 3.54347 12.0322 3.10955C14.2447 2.67563 16.5381 2.89833 18.6222 3.74949C20.7064 4.60066 22.4877 6.04205 23.741 7.8914C24.9943 9.74075 25.6633 11.915 25.6633 14.1392C25.6633 17.1217 24.4616 19.9821 22.3226 22.0911C20.1835 24.2001 17.2824 25.3849 14.2574 25.3849ZM19.9603 12.7335H15.6831V8.51633C15.6831 8.14351 15.5329 7.78596 15.2655 7.52234C14.9981 7.25871 14.6355 7.11061 14.2574 7.11061C13.8792 7.11061 13.5166 7.25871 13.2492 7.52234C12.9818 7.78596 12.8316 8.14351 12.8316 8.51633V12.7335H8.55442C8.1763 12.7335 7.81365 12.8816 7.54628 13.1452C7.2789 13.4088 7.12869 13.7664 7.12869 14.1392C7.12869 14.512 7.2789 14.8696 7.54628 15.1332C7.81365 15.3968 8.1763 15.5449 8.55442 15.5449H12.8316V19.7621C12.8316 20.1349 12.9818 20.4924 13.2492 20.7561C13.5166 21.0197 13.8792 21.1678 14.2574 21.1678C14.6355 21.1678 14.9981 21.0197 15.2655 20.7561C15.5329 20.4924 15.6831 20.1349 15.6831 19.7621V15.5449H19.9603C20.3384 15.5449 20.7011 15.3968 20.9685 15.1332C21.2358 14.8696 21.3861 14.512 21.3861 14.1392C21.3861 13.7664 21.2358 13.4088 20.9685 13.1452C20.7011 12.8816 20.3384 12.7335 19.9603 12.7335Z" fill="white" fill-opacity="0.53"/>
</svg>
