<svg width="42" height="44" viewBox="0 0 42 44" fill="none" xmlns="http://www.w3.org/2000/svg">
<path d="M0 43H31H0Z" fill="white"/>
<path d="M0 43H31" stroke="white" stroke-width="1.93548"/>
<path d="M1 9.90039V42.1354V9.90039Z" fill="white"/>
<path d="M1 9.90039V42.1354" stroke="white" stroke-width="1.93548"/>
<path d="M41.3672 2H2.99924H41.3672Z" fill="white"/>
<path d="M41.3672 2H2.99924" stroke="white" stroke-width="2.90322"/>
<path d="M40 39.623V2.99989V39.623Z" fill="white"/>
<path d="M40 39.623V2.99989" stroke="white" stroke-width="2.90322"/>
<path d="M20.1187 22.5495L20.1579 23.215L20.158 23.215L20.1581 23.215L20.1583 23.215L20.1589 23.2149L20.1608 23.2148L20.1671 23.2144L20.1904 23.2129C20.2106 23.2116 20.2401 23.2096 20.2793 23.2068C20.3558 23.2012 20.4689 23.1925 20.6195 23.1797C21.0254 23.1562 21.4443 23.0489 21.8692 22.9014C22.3806 22.7302 22.8271 22.4589 23.2073 22.0787C23.6851 21.601 23.8911 20.9603 23.8911 20.2464C23.8911 19.5072 23.6953 18.8534 23.2264 18.3638C22.855 17.9434 22.4084 17.6349 21.8818 17.456C21.4509 17.2885 21.0317 17.172 20.6263 17.1392L20.6184 17.1385L20.6104 17.1381C20.4643 17.1297 20.3574 17.1215 20.2888 17.1155C20.2545 17.1125 20.2298 17.1101 20.2145 17.1085L20.1985 17.1069L20.1966 17.1067L20.1966 17.1066L20.1965 17.1066L20.1964 17.1066L20.1961 17.1066L20.1958 17.1066L20.1958 17.1066L20.1578 17.1021H20.1187H16.9781H16.3115V17.7687V22.5495V23.2161H16.9781H20.1187H20.1383L20.1579 23.215L20.1187 22.5495ZM25.8458 22.5153L25.8445 22.5169C25.3546 23.1293 24.7537 23.5855 24.0428 23.8912L22.4352 24.5827L24.0954 25.1361C24.8583 25.3904 25.3852 25.7226 25.7326 26.1041L25.7326 26.1041L25.7363 26.1081C26.1246 26.5274 26.3874 26.944 26.5439 27.356C26.7129 27.807 26.7958 28.1579 26.8165 28.4202C26.8254 28.588 26.8343 28.7138 26.8413 28.7995C26.8448 28.8424 26.8477 28.8753 26.8499 28.8984C26.846 29.9751 26.6505 30.8062 26.3033 31.4427L26.3033 31.4427L26.3007 31.4475C25.9461 32.1105 25.4936 32.6182 24.9467 32.9881C24.372 33.371 23.7694 33.6558 23.1376 33.8453L23.1376 33.8453L23.1331 33.8467C22.4877 34.0453 21.8939 34.1747 21.3417 34.2394C20.7758 34.2898 20.3717 34.3057 20.1187 34.3057H17.6797V31.8005H20.1187C20.5989 31.8005 21.1197 31.7525 21.6717 31.6496L21.6801 31.6481L21.6884 31.6463C22.332 31.5091 22.8938 31.2206 23.3592 30.7894C23.925 30.2831 24.1703 29.5763 24.1703 28.7609C24.1703 28.1611 24.0193 27.6238 23.6948 27.1836C23.418 26.7938 23.0503 26.4867 22.6032 26.2744L22.6026 26.2741C22.2174 26.0916 21.8233 25.9661 21.4041 25.9032L21.4041 25.9031L21.3922 25.9015C21.0635 25.8583 20.7592 25.828 20.4941 25.8261C20.3966 25.8186 20.3255 25.8114 20.2799 25.8063C20.2553 25.8035 20.2382 25.8013 20.2283 25.8L20.2194 25.7988L20.2188 25.7987L20.2188 25.7987L20.2181 25.7986L20.1697 25.7911H20.1187H13.6667V14.6667H20.0882L20.0933 14.6671C20.1179 14.6693 20.1534 14.6722 20.1997 14.6757C20.291 14.6826 20.4245 14.6914 20.6003 14.7003C20.9168 14.7245 21.3251 14.781 21.8559 14.8665C22.3357 14.9535 22.8599 15.1054 23.4405 15.3208C23.969 15.5283 24.476 15.8308 24.9695 16.2288L24.9695 16.2288L24.9726 16.2313C25.4432 16.6063 25.819 17.0893 26.1119 17.7058L26.1118 17.7059L26.1178 17.7179C26.4083 18.2989 26.5708 19.0537 26.5708 20.0021C26.5708 21.1374 26.2997 21.9514 25.8458 22.5153ZM13.2792 14.6667H13.2794C13.2793 14.6667 13.2792 14.6667 13.2792 14.6667Z" fill="white" stroke="white" stroke-width="1.33333"/>
</svg>
