<svg width="67" height="67" viewBox="0 0 67 67" fill="none" xmlns="http://www.w3.org/2000/svg">
<path d="M11 50H42" stroke="white" stroke-width="1.93548"/>
<path d="M12 16.9004V49.1354" stroke="white" stroke-width="1.93548"/>
<path d="M52.3672 9H13.9992" stroke="white" stroke-width="2.90322"/>
<path d="M51 46.623V9.99989" stroke="white" stroke-width="2.90322"/>
<path d="M34.2245 27.2464C34.2245 26.6182 34.0587 26.1471 33.7359 25.8156C33.4306 25.4667 33.0729 25.2224 32.6542 25.0828C32.2529 24.9258 31.8952 24.8298 31.5724 24.8036C31.2671 24.7862 31.1187 24.7687 31.1187 24.7687H27.9781V29.5495H31.1187C31.1187 29.5495 31.2671 29.5408 31.5724 29.5146C31.8952 29.4971 32.2529 29.4099 32.6542 29.2703C33.0729 29.1307 33.4306 28.9126 33.7359 28.6073C34.0587 28.2845 34.2245 27.8309 34.2245 27.2464ZM38.2375 27.0021C38.2375 28.2409 37.9409 29.218 37.3651 29.9333C36.8068 30.6313 36.1176 31.1547 35.3062 31.5036C36.1437 31.7828 36.7806 32.1667 37.2255 32.6552C37.6617 33.1263 37.9758 33.6148 38.1677 34.1208C38.3509 34.6094 38.4556 35.0281 38.4818 35.3771C38.4992 35.7086 38.5167 35.8656 38.5167 35.8656C38.5167 37.0346 38.3073 37.9943 37.8885 38.762C37.4872 39.5122 36.9638 40.1055 36.3182 40.5417C35.6901 40.9604 35.0271 41.2745 34.3292 41.4839C33.6487 41.6932 33.0118 41.8328 32.4099 41.9026C31.8254 41.9549 31.3979 41.9724 31.1187 41.9724H28.013V38.1339H31.1187C31.5549 38.1339 32.0348 38.0902 32.5495 37.9943C33.0816 37.8809 33.5353 37.6453 33.9104 37.2964C34.303 36.9474 34.5036 36.4414 34.5036 35.7609C34.5036 35.2724 34.3815 34.8798 34.1547 34.5745C33.9453 34.2779 33.6661 34.0423 33.3172 33.8766C32.9857 33.7195 32.6542 33.6148 32.3052 33.5625C31.9737 33.5189 31.6945 33.4927 31.4677 33.4927C31.2322 33.4753 31.1187 33.4578 31.1187 33.4578H24V21.2443C24 21.0872 24.0872 21 24.2792 21H31.1187C31.1187 21 31.2932 21.0174 31.6422 21.0349C31.9911 21.0611 32.4273 21.1221 32.9682 21.2094C33.5004 21.3053 34.0674 21.4711 34.6781 21.6979C35.2801 21.9335 35.8471 22.2737 36.388 22.7099C36.9464 23.1548 37.3826 23.7219 37.7141 24.4198C38.063 25.1177 38.2375 25.9814 38.2375 27.0021Z" fill="white"/>
</svg>
