<svg width="20" height="20" viewBox="0 0 20 20" fill="none" xmlns="http://www.w3.org/2000/svg">
<path fill-rule="evenodd" clip-rule="evenodd" d="M1.98951 3.38995L2.97595 9.06194H9.06242C9.58018 9.06194 9.99992 9.48167 9.99992 9.99944C9.99992 10.5172 9.58018 10.9369 9.06242 10.9369H2.97595L1.98951 16.6089L17.4117 9.99944L1.98951 3.38995ZM1.23584 9.99944L0.0795019 3.35048C-0.0139788 2.81297 0.159948 2.26358 0.545735 1.87779C1.03047 1.39307 1.76148 1.25228 2.39157 1.52232L19.1445 8.70214C19.6634 8.92455 19.9999 9.43483 19.9999 9.99944C19.9999 10.564 19.6634 11.0743 19.1445 11.2967L2.39157 18.4765C1.76148 18.7466 1.03047 18.6058 0.545735 18.1211C0.159948 17.7353 -0.0139791 17.1859 0.0795019 16.6484L1.23584 9.99944Z" fill="white"/>
</svg>
