<svg width="21" height="21" viewBox="0 0 21 21" fill="none" xmlns="http://www.w3.org/2000/svg">
<path d="M20.3963 18.7944L16.6625 15.1428C18.1119 13.3611 18.8137 11.0996 18.6238 8.82334C18.4339 6.54707 17.3667 4.42905 15.6416 2.90479C13.9164 1.38052 11.6645 0.565871 9.34893 0.628345C7.03331 0.690819 4.82998 1.62567 3.19198 3.24067C1.55398 4.85567 0.605819 7.02806 0.542455 9.31116C0.479092 11.5943 1.30534 13.8145 2.85132 15.5154C4.39729 17.2163 6.54547 18.2686 8.85416 18.4558C11.1628 18.643 13.4565 17.951 15.2636 16.5221L18.9672 20.1736C19.0608 20.2666 19.1721 20.3404 19.2947 20.3908C19.4173 20.4412 19.5489 20.4671 19.6817 20.4671C19.8146 20.4671 19.9461 20.4412 20.0688 20.3908C20.1914 20.3404 20.3027 20.2666 20.3963 20.1736C20.5777 19.9886 20.6791 19.7413 20.6791 19.484C20.6791 19.2267 20.5777 18.9794 20.3963 18.7944ZM9.61772 16.5221C8.22438 16.5221 6.86234 16.1147 5.70383 15.3515C4.54531 14.5882 3.64236 13.5034 3.10916 12.2342C2.57595 10.9651 2.43644 9.56847 2.70827 8.2211C2.98009 6.87372 3.65105 5.63608 4.63628 4.66468C5.62152 3.69328 6.87678 3.03175 8.24334 2.76374C9.6099 2.49573 11.0264 2.63329 12.3137 3.159C13.6009 3.68472 14.7012 4.57499 15.4753 5.71724C16.2494 6.85949 16.6625 8.2024 16.6625 9.57617C16.6625 11.4183 15.9203 13.1851 14.5992 14.4877C13.278 15.7903 11.4861 16.5221 9.61772 16.5221Z" fill="white" fill-opacity="0.53"/>
</svg>
