<svg width="18" height="18" viewBox="0 0 18 18" fill="none" xmlns="http://www.w3.org/2000/svg">
<path fill-rule="evenodd" clip-rule="evenodd" d="M16.194 2.19901C15.314 1.39342 14.1248 0.941406 12.8855 0.941406C11.6461 0.941406 10.457 1.39342 9.57698 2.19901L7.81873 3.81101C7.71792 3.90333 7.6379 4.01315 7.58329 4.13415C7.52868 4.25515 7.50056 4.38493 7.50056 4.51601C7.50056 4.6471 7.52868 4.77688 7.58329 4.89788C7.6379 5.01888 7.71792 5.1287 7.81873 5.22101C8.2434 5.61101 8.93132 5.61101 9.3549 5.22101L11.1132 3.60801C11.5845 3.1767 12.2213 2.9347 12.8849 2.9347C13.5486 2.9347 14.1854 3.1767 14.6567 3.60801C14.8891 3.82089 15.0736 4.07411 15.1994 4.3531C15.3253 4.63208 15.3901 4.9313 15.3901 5.23351C15.3901 5.53573 15.3253 5.83495 15.1994 6.11393C15.0736 6.39292 14.8891 6.64614 14.6567 6.85901L12.0643 9.23902C11.4513 9.80028 10.6229 10.1152 9.75953 10.1152C8.89613 10.1152 8.06771 9.80028 7.45473 9.23902L7.40057 9.19001C7.19626 9.00303 6.92019 8.89811 6.63248 8.89811C6.34477 8.89811 6.06871 9.00303 5.8644 9.19001C5.76358 9.28232 5.68356 9.39215 5.62895 9.51315C5.57434 9.63415 5.54623 9.76394 5.54623 9.89502C5.54623 10.0261 5.57434 10.1559 5.62895 10.2769C5.68356 10.3979 5.76358 10.5077 5.8644 10.6L5.91857 10.649C6.94031 11.584 8.3208 12.1086 9.75953 12.1086C11.1983 12.1086 12.5787 11.584 13.6005 10.649L16.194 8.26901C16.6283 7.87157 16.9731 7.39866 17.2083 6.87757C17.4436 6.35648 17.5647 5.79754 17.5647 5.23301C17.5647 4.66848 17.4436 4.10954 17.2083 3.58846C16.9731 3.06737 16.6283 2.59446 16.194 2.19701V2.19901ZM1.37074 15.799C2.25071 16.6046 3.43988 17.0566 4.67924 17.0566C5.91859 17.0566 7.10776 16.6046 7.98773 15.799L9.3549 14.544C9.45572 14.4517 9.53574 14.3419 9.59035 14.2209C9.64496 14.0999 9.67307 13.9701 9.67307 13.839C9.67307 13.7079 9.64496 13.5781 9.59035 13.4571C9.53574 13.3361 9.45572 13.2263 9.3549 13.134C9.15059 12.947 8.87453 12.8421 8.58682 12.8421C8.29911 12.8421 8.02305 12.947 7.81873 13.134L6.45049 14.391C5.97922 14.822 5.34265 15.0638 4.67924 15.0638C4.01583 15.0638 3.37925 14.822 2.90799 14.391C2.67559 14.1781 2.49114 13.9249 2.36527 13.6459C2.2394 13.3669 2.1746 13.0677 2.1746 12.7655C2.1746 12.4633 2.2394 12.1641 2.36527 11.8851C2.49114 11.6061 2.67559 11.3529 2.90799 11.14L5.44732 8.80901C5.97055 8.33031 6.67742 8.06174 7.41411 8.06174C8.1508 8.06174 8.85767 8.33031 9.3809 8.80901C9.80557 9.19901 10.4935 9.19901 10.9182 8.80901C11.019 8.7167 11.099 8.60688 11.1536 8.48588C11.2082 8.36488 11.2363 8.2351 11.2363 8.10401C11.2363 7.97293 11.2082 7.84315 11.1536 7.72215C11.099 7.60115 11.019 7.49133 10.9182 7.39901C9.98625 6.54604 8.72702 6.06744 7.41465 6.06744C6.10228 6.06744 4.84305 6.54604 3.91115 7.39901L1.37074 9.72902C0.93641 10.1265 0.591664 10.5994 0.356397 11.1205C0.12113 11.6415 0 12.2005 0 12.765C0 13.3295 0.12113 13.8885 0.356397 14.4096C0.591664 14.9307 0.93641 15.4036 1.37074 15.801V15.799Z" fill="white"/>
</svg>
