<svg width="16" height="18" viewBox="0 0 16 18" fill="none" xmlns="http://www.w3.org/2000/svg">
<path d="M7.167 6.08375C7.167 6.41527 7.0353 6.73321 6.80088 6.96763C6.56646 7.20205 6.24852 7.33375 5.917 7.33375C5.58548 7.33375 5.26754 7.20205 5.03312 6.96763C4.7987 6.73321 4.667 6.41527 4.667 6.08375C4.667 5.75223 4.7987 5.43429 5.03312 5.19987C5.26754 4.96545 5.58548 4.83375 5.917 4.83375C6.24852 4.83375 6.56646 4.96545 6.80088 5.19987C7.0353 5.43429 7.167 5.75223 7.167 6.08375Z" fill="white"/>
<path d="M0.5 13.6887C0.5 13.7407 0.504 13.7927 0.513 13.8427C0.590779 14.7804 1.01818 15.6546 1.71042 16.2918C2.40265 16.929 3.30913 17.2827 4.25 17.2827H11.75C12.7446 17.2827 13.6984 16.8877 14.4017 16.1844C15.1049 15.4811 15.5 14.5273 15.5 13.5327V4.46875C15.5 3.47419 15.1049 2.52036 14.4017 1.8171C13.6984 1.11384 12.7446 0.71875 11.75 0.71875H4.25C3.75746 0.71875 3.26974 0.81578 2.81471 1.0043C2.35967 1.19282 1.94623 1.46913 1.598 1.81745C1.24976 2.16578 0.973561 2.57929 0.785165 3.03438C0.596768 3.48947 0.499869 3.97721 0.5 4.46975V13.6887ZM4.25 2.59475H11.75C12.786 2.59475 13.625 3.43475 13.625 4.46975V8.15575C13.1254 7.88315 12.5641 7.74368 11.995 7.75075C11.15 7.75075 10.475 8.18675 9.972 8.64875C9.469 9.11075 9.026 9.70475 8.65 10.2188L8.525 10.3887C8.181 10.8627 7.893 11.2568 7.607 11.5557C7.268 11.9087 7.123 11.9177 7.123 11.9177C6.955 11.9177 6.841 11.8377 6.283 11.3287C5.804 10.8927 5.065 10.2507 3.874 10.2507C3.316 10.2507 2.812 10.3647 2.375 10.5707V4.46975C2.375 3.43375 3.215 2.59475 4.25 2.59475ZM13.625 11.1887C13.625 11.2007 13.625 11.1997 13.622 11.1847C13.617 11.1547 13.602 11.0627 13.555 10.9207C13.4858 10.7064 13.3876 10.5025 13.263 10.3147C13.003 9.92775 12.624 9.62575 11.996 9.62575C11.826 9.62575 11.588 9.71075 11.241 10.0297C10.893 10.3497 10.55 10.7968 10.164 11.3247L10.038 11.4977C9.708 11.9497 9.341 12.4557 8.961 12.8527C8.551 13.2808 7.934 13.7927 7.123 13.7927C6.167 13.7927 5.503 13.1687 5.124 12.8127C5.08924 12.7798 5.05424 12.7472 5.019 12.7147C4.583 12.3167 4.307 12.1257 3.874 12.1257C3.324 12.1257 2.977 12.3267 2.755 12.5837C2.531 12.8418 2.393 13.2087 2.377 13.6097C2.417 14.6097 3.24 15.4067 4.25 15.4067H11.75C12.786 15.4067 13.625 14.5667 13.625 13.5317V11.1887Z" fill="white"/>
</svg>
