<svg width="26" height="24" viewBox="0 0 26 24" fill="none" xmlns="http://www.w3.org/2000/svg">
<mask id="mask0_383_784" style="mask-type:alpha" maskUnits="userSpaceOnUse" x="0" y="0" width="26" height="24">
<rect width="25.0852" height="24" fill="#D9D9D9"/>
</mask>
<g mask="url(#mask0_383_784)">
<path d="M9.24997 17.8242L12.5424 15.9242L15.8348 17.8492L14.9725 14.2492L17.873 11.8492L14.058 11.5242L12.5424 8.12422L11.0268 11.4992L7.2118 11.8242L10.1123 14.2492L9.24997 17.8242ZM12.5424 18.2742L8.20476 20.7742C8.01314 20.8909 7.8128 20.9409 7.60376 20.9242C7.39472 20.9076 7.2118 20.8409 7.05502 20.7242C6.89824 20.6076 6.7763 20.4617 6.6892 20.2867C6.60209 20.1117 6.58467 19.9159 6.63694 19.6992L7.78667 14.9742L3.94551 11.7992C3.7713 11.6492 3.66243 11.4784 3.61888 11.2867C3.57532 11.0951 3.58839 10.9076 3.65807 10.7242C3.72775 10.5409 3.83227 10.3909 3.97164 10.2742C4.111 10.1576 4.30262 10.0826 4.5465 10.0492L9.6158 9.62422L11.5756 5.17422C11.6627 4.97422 11.7977 4.82422 11.9806 4.72422C12.1635 4.62422 12.3508 4.57422 12.5424 4.57422C12.734 4.57422 12.9213 4.62422 13.1042 4.72422C13.2871 4.82422 13.4221 4.97422 13.5092 5.17422L15.469 9.62422L20.5383 10.0492C20.7822 10.0826 20.9738 10.1576 21.1132 10.2742C21.2525 10.3909 21.3571 10.5409 21.4267 10.7242C21.4964 10.9076 21.5095 11.0951 21.4659 11.2867C21.4224 11.4784 21.3135 11.6492 21.1393 11.7992L17.2981 14.9742L18.4479 19.6992C18.5001 19.9159 18.4827 20.1117 18.3956 20.2867C18.3085 20.4617 18.1866 20.6076 18.0298 20.7242C17.873 20.8409 17.6901 20.9076 17.481 20.9242C17.272 20.9409 17.0717 20.8909 16.88 20.7742L12.5424 18.2742Z" fill="white"/>
</g>
</svg>
