<svg width="15" height="3" viewBox="0 0 15 3" fill="none" xmlns="http://www.w3.org/2000/svg">
<path d="M7.2835 0.09375C6.98124 0.09375 6.68576 0.177928 6.43444 0.33564C6.18311 0.493351 5.98723 0.717512 5.87156 0.979777C5.75588 1.24204 5.72562 1.53063 5.78459 1.80905C5.84356 2.08747 5.98911 2.34321 6.20285 2.54394C6.41658 2.74467 6.68889 2.88137 6.98535 2.93675C7.28181 2.99213 7.58909 2.9637 7.86835 2.85507C8.1476 2.74644 8.38629 2.56247 8.55422 2.32644C8.72215 2.09041 8.81178 1.81291 8.81178 1.52904C8.81178 1.14838 8.65076 0.783305 8.36416 0.514136C8.07755 0.244968 7.68883 0.09375 7.2835 0.09375ZM1.93453 0.09375C1.63226 0.09375 1.33679 0.177928 1.08546 0.33564C0.834139 0.493351 0.638256 0.717512 0.522584 0.979777C0.406912 1.24204 0.376647 1.53063 0.435616 1.80905C0.494585 2.08747 0.640139 2.34321 0.853873 2.54394C1.06761 2.74467 1.33992 2.88137 1.63638 2.93675C1.93283 2.99213 2.24012 2.9637 2.51938 2.85507C2.79863 2.74644 3.03732 2.56247 3.20525 2.32644C3.37317 2.09041 3.46281 1.81291 3.46281 1.52904C3.46281 1.14838 3.30179 0.783305 3.01518 0.514136C2.72858 0.244968 2.33985 0.09375 1.93453 0.09375ZM12.6325 0.09375C12.3302 0.09375 12.0347 0.177928 11.7834 0.33564C11.5321 0.493351 11.3362 0.717512 11.2205 0.979777C11.1049 1.24204 11.0746 1.53063 11.1336 1.80905C11.1925 2.08747 11.3381 2.34321 11.5518 2.54394C11.7656 2.74467 12.0379 2.88137 12.3343 2.93675C12.6308 2.99213 12.9381 2.9637 13.2173 2.85507C13.4966 2.74644 13.7353 2.56247 13.9032 2.32644C14.0711 2.09041 14.1608 1.81291 14.1608 1.52904C14.1608 1.14838 13.9997 0.783305 13.7131 0.514136C13.4265 0.244968 13.0378 0.09375 12.6325 0.09375Z" fill="white"/>
</svg>
