<svg width="11" height="18" viewBox="0 0 11 18" fill="none" xmlns="http://www.w3.org/2000/svg">
<path d="M4.14813 8.92899L10.2266 2.90348C10.5464 2.58456 10.7259 2.15316 10.7259 1.70348C10.7259 1.2538 10.5464 0.822399 10.2266 0.503485C10.067 0.343948 9.87708 0.217319 9.66783 0.130905C9.45859 0.0444901 9.23416 0 9.00748 0C8.78081 0 8.55637 0.0444901 8.34713 0.130905C8.13789 0.217319 7.94798 0.343948 7.78835 0.503485L0.507911 7.72048C0.346971 7.87872 0.21923 8.06697 0.132056 8.27439C0.044882 8.48181 0 8.70429 0 8.92899C0 9.15369 0.044882 9.37617 0.132056 9.58358C0.21923 9.791 0.346971 9.97926 0.507911 10.1375L7.78835 17.4396C7.9488 17.5974 8.13908 17.7222 8.34828 17.8069C8.55749 17.8916 8.7815 17.9345 9.00748 17.9332C9.23346 17.9345 9.45748 17.8916 9.66668 17.8069C9.87589 17.7222 10.0662 17.5974 10.2266 17.4396C10.5464 17.1207 10.7259 16.6893 10.7259 16.2396C10.7259 15.7899 10.5464 15.3585 10.2266 15.0396L4.14813 8.92899Z" fill="white" fill-opacity="0.59"/>
</svg>
