<svg xmlns="http://www.w3.org/2000/svg" xmlns:xlink="http://www.w3.org/1999/xlink" width="500" zoomAndPan="magnify" viewBox="0 0 375 374.999991" height="500" preserveAspectRatio="xMidYMid meet" version="1.0"><defs><g/></defs><rect x="-37.5" width="450" fill="#ffffff" y="-37.499999" height="449.999989" fill-opacity="1"/><rect x="-37.5" width="450" fill="#f4f4f4" y="-37.499999" height="449.999989" fill-opacity="1"/><path stroke-linecap="butt" transform="matrix(-0.75, 0, 0, -0.75, 333.22967, 58.551896)" fill="none" stroke-linejoin="miter" d="M -0.00106524 23.001488 L 388.639585 23.001488 " stroke="#f4f4f4" stroke-width="46" stroke-opacity="1" stroke-miterlimit="4"/><g fill="#f4f4f4" fill-opacity="1"><g transform="translate(116.267398, 284.090418)"><g><path d="M 95.453125 -137.5625 C 95.453125 -143.4375 93.984375 -147.960938 91.046875 -151.140625 C 88.109375 -154.328125 84.765625 -156.613281 81.015625 -158 C 77.265625 -159.382812 73.921875 -160.195312 70.984375 -160.4375 C 68.046875 -160.6875 66.578125 -160.8125 66.578125 -160.8125 L 37.203125 -160.8125 L 37.203125 -116.015625 L 66.578125 -116.015625 C 66.578125 -116.015625 68.046875 -116.132812 70.984375 -116.375 C 73.921875 -116.625 77.265625 -117.398438 81.015625 -118.703125 C 84.765625 -120.015625 88.109375 -122.140625 91.046875 -125.078125 C 93.984375 -128.015625 95.453125 -132.175781 95.453125 -137.5625 Z M 132.90625 -139.765625 C 132.90625 -128.335938 130.253906 -119.28125 124.953125 -112.59375 C 119.648438 -105.90625 113.242188 -101.007812 105.734375 -97.90625 C 113.566406 -95.289062 119.519531 -91.738281 123.59375 -87.25 C 127.675781 -82.769531 130.570312 -78.203125 132.28125 -73.546875 C 134 -68.898438 134.976562 -64.984375 135.21875 -61.796875 C 135.46875 -58.617188 135.59375 -57.03125 135.59375 -57.03125 C 135.59375 -46.09375 133.675781 -37.113281 129.84375 -30.09375 C 126.007812 -23.082031 121.113281 -17.535156 115.15625 -13.453125 C 109.207031 -9.378906 103.007812 -6.363281 96.5625 -4.40625 C 90.113281 -2.445312 84.15625 -1.222656 78.6875 -0.734375 C 73.226562 -0.242188 69.191406 0 66.578125 0 L 37.453125 0 L 37.453125 -35.734375 L 66.578125 -35.734375 C 70.660156 -35.734375 75.144531 -36.265625 80.03125 -37.328125 C 84.925781 -38.390625 89.171875 -40.550781 92.765625 -43.8125 C 96.359375 -47.070312 98.15625 -51.804688 98.15625 -58.015625 C 98.15625 -62.578125 97.09375 -66.285156 94.96875 -69.140625 C 92.84375 -71.992188 90.226562 -74.15625 87.125 -75.625 C 84.03125 -77.09375 80.890625 -78.070312 77.703125 -78.5625 C 74.523438 -79.050781 71.875 -79.335938 69.75 -79.421875 C 67.632812 -79.503906 66.578125 -79.546875 66.578125 -79.546875 L 0 -79.546875 L 0 -193.609375 C 0 -195.078125 0.894531 -195.8125 2.6875 -195.8125 L 66.578125 -195.8125 C 66.578125 -195.8125 68.164062 -195.726562 71.34375 -195.5625 C 74.53125 -195.40625 78.648438 -194.875 83.703125 -193.96875 C 88.765625 -193.070312 94.109375 -191.519531 99.734375 -189.3125 C 105.367188 -187.113281 110.710938 -183.972656 115.765625 -179.890625 C 120.828125 -175.816406 124.945312 -170.515625 128.125 -163.984375 C 131.3125 -157.460938 132.90625 -149.390625 132.90625 -139.765625 Z M 132.90625 -139.765625 "/></g></g></g><path stroke-linecap="butt" transform="matrix(0, -0.75, 0.75, 0, 298.72516, 317.615926)" fill="none" stroke-linejoin="miter" d="M -0.00168154 23.001871 L 384.399385 23.001871 " stroke="#f4f4f4" stroke-width="46" stroke-opacity="1" stroke-miterlimit="4"/><path stroke-linecap="butt" transform="matrix(0.75, 0, 0, 0.75, 24.211186, 327.052157)" fill="none" stroke-linejoin="miter" d="M -0.00033116 15.998167 L 291.098646 15.998167 " stroke="#f4f4f4" stroke-width="32" stroke-opacity="1" stroke-miterlimit="4"/><path stroke-linecap="butt" transform="matrix(0, 0.75, -0.75, 0, 47.891505, 135.109899)" fill="none" stroke-linejoin="miter" d="M -0.000698837 16.001174 L 287.926403 16.001174 " stroke="#f4f4f4" stroke-width="32" stroke-opacity="1" stroke-miterlimit="4"/></svg>