<svg width="18" height="18" viewBox="0 0 18 18" fill="none" xmlns="http://www.w3.org/2000/svg">
<g id="icons8-google">
<mask id="mask0_253_1064" style="mask-type:luminance" maskUnits="userSpaceOnUse" x="0" y="0" width="18" height="19">
<rect id="Background" y="0.000976562" width="18" height="18" fill="white"/>
</mask>
<g mask="url(#mask0_253_1064)">
<path id="Shape" fill-rule="evenodd" clip-rule="evenodd" d="M16.3541 7.5321H15.75V7.50098H9V10.501H13.2386C12.6203 12.2474 10.9586 13.501 9 13.501C6.51488 13.501 4.5 11.4861 4.5 9.00098C4.5 6.51585 6.51488 4.50098 9 4.50098C10.1471 4.50098 11.1908 4.93373 11.9854 5.6406L14.1067 3.51923C12.7673 2.27085 10.9755 1.50098 9 1.50098C4.85813 1.50098 1.5 4.8591 1.5 9.00098C1.5 13.1429 4.85813 16.501 9 16.501C13.1419 16.501 16.5 13.1429 16.5 9.00098C16.5 8.4981 16.4482 8.00723 16.3541 7.5321Z" fill="#FFC107"/>
<path id="Shape_2" fill-rule="evenodd" clip-rule="evenodd" d="M2.36328 5.5101L4.82741 7.31723C5.49416 5.66648 7.10891 4.50098 8.99853 4.50098C10.1457 4.50098 11.1893 4.93373 11.9839 5.6406L14.1053 3.51923C12.7658 2.27085 10.974 1.50098 8.99853 1.50098C6.11778 1.50098 3.61953 3.12735 2.36328 5.5101Z" fill="#FF3D00"/>
<path id="Shape_3" fill-rule="evenodd" clip-rule="evenodd" d="M9.00109 16.5012C10.9383 16.5012 12.6986 15.7599 14.0295 14.5542L11.7082 12.59C10.9552 13.1604 10.0192 13.5012 9.00109 13.5012C7.05034 13.5012 5.39397 12.2574 4.76997 10.5215L2.32422 12.4059C3.56547 14.8347 6.08622 16.5012 9.00109 16.5012Z" fill="#4CAF50"/>
<path id="Shape_4" fill-rule="evenodd" clip-rule="evenodd" d="M16.3541 7.5321H15.75V7.50098H9V10.501H13.2386C12.9416 11.3399 12.402 12.0632 11.706 12.5901C11.7064 12.5897 11.7068 12.5897 11.7071 12.5894L14.0284 14.5536C13.8641 14.7029 16.5 12.751 16.5 9.00098C16.5 8.4981 16.4482 8.00723 16.3541 7.5321Z" fill="#1976D2"/>
</g>
</g>
</svg>
