<svg width="18" height="18" viewBox="0 0 18 18" fill="none" xmlns="http://www.w3.org/2000/svg">
<mask id="mask0_253_1072" style="mask-type:luminance" maskUnits="userSpaceOnUse" x="0" y="0" width="18" height="19">
<rect y="0.000976562" width="18" height="18" fill="white"/>
</mask>
<g mask="url(#mask0_253_1072)">
<path fill-rule="evenodd" clip-rule="evenodd" d="M9 1.87598C5.06498 1.87598 1.87501 5.06594 1.875 9.00096C1.87499 12.936 5.06494 16.126 8.99997 16.126C12.935 16.126 16.125 12.936 16.125 9.00101C16.125 5.06599 12.9351 1.87601 9.00003 1.87598H9Z" fill="#039BE5"/>
<path fill-rule="evenodd" clip-rule="evenodd" d="M9.965 10.8899H11.8089L12.0984 9.01676H9.96462V7.99301C9.96462 7.21488 10.2189 6.52488 10.9467 6.52488H12.1164V4.89026C11.9109 4.86251 11.4762 4.80176 10.655 4.80176C8.94012 4.80176 7.93475 5.70738 7.93475 7.77063V9.01676H6.17188V10.8899H7.93475V16.0383C8.28387 16.0908 8.6375 16.1264 9.0005 16.1264C9.32862 16.1264 9.64887 16.0964 9.965 16.0536V10.8899Z" fill="white"/>
</g>
</svg>
